<svg xmlns="http://www.w3.org/2000/svg" xmlns:xlink="http://www.w3.org/1999/xlink" width="1366" zoomAndPan="magnify" viewBox="0 0 1024.5 576" height="768" preserveAspectRatio="xMidYMid meet" version="1.0"><defs><clipPath id="id1"><path d="M 0 0.140625 L 1024 0.140625 L 1024 575.859375 L 0 575.859375 Z M 0 0.140625 " clip-rule="nonzero"/></clipPath><clipPath id="id2"><path d="M 495.898438 0.140625 L 759.898438 0.140625 L 759.898438 288.140625 L 495.898438 288.140625 Z M 495.898438 0.140625 " clip-rule="nonzero"/></clipPath><clipPath id="id3"><path d="M 760.199219 288.140625 L 1024 288.140625 L 1024 575.859375 L 760.199219 575.859375 Z M 760.199219 288.140625 " clip-rule="nonzero"/></clipPath></defs><g clip-path="url(#id1)"><path fill="#ffffff" d="M 0 0.140625 L 1024.5 0.140625 L 1024.5 583.640625 L 0 583.640625 Z M 0 0.140625 " fill-opacity="1" fill-rule="nonzero"/><path fill="#5e17eb" d="M 0 0.140625 L 1024.5 0.140625 L 1024.5 576.140625 L 0 576.140625 Z M 0 0.140625 " fill-opacity="1" fill-rule="nonzero"/><path fill="#ffffff" d="M 0 0.140625 L 1024.5 0.140625 L 1024.5 576.140625 L 0 576.140625 Z M 0 0.140625 " fill-opacity="1" fill-rule="nonzero"/><path fill="#5e17eb" d="M 0 0.140625 L 1024.5 0.140625 L 1024.5 576.140625 L 0 576.140625 Z M 0 0.140625 " fill-opacity="1" fill-rule="nonzero"/></g><g clip-path="url(#id2)"><path fill="#8c52ff" d="M 495.898438 0.144531 L 759.898438 0.144531 L 759.898438 288.136719 L 495.898438 288.136719 L 495.898438 0.144531 " fill-opacity="1" fill-rule="nonzero"/></g><g clip-path="url(#id3)"><path fill="#8c52ff" d="M 760.199219 288.144531 L 1024.199219 288.144531 L 1024.199219 576.136719 L 760.199219 576.136719 L 760.199219 288.144531 " fill-opacity="1" fill-rule="nonzero"/></g></svg>