<svg xmlns="http://www.w3.org/2000/svg" xmlns:xlink="http://www.w3.org/1999/xlink" width="1366" zoomAndPan="magnify" viewBox="0 0 1024.5 576" height="768" preserveAspectRatio="xMidYMid meet" version="1.0"><defs><clipPath id="id1"><path d="M 0 0.140625 L 1024 0.140625 L 1024 575.859375 L 0 575.859375 Z M 0 0.140625 " clip-rule="nonzero"/></clipPath><clipPath id="id2"><path d="M 529.351562 115.339844 L 701.851562 115.339844 L 701.851562 287.839844 L 529.351562 287.839844 Z M 529.351562 115.339844 " clip-rule="nonzero"/></clipPath><clipPath id="id3"><path d="M 702.148438 288.140625 L 874.648438 288.140625 L 874.648438 460.640625 L 702.148438 460.640625 Z M 702.148438 288.140625 " clip-rule="nonzero"/></clipPath><clipPath id="id4"><path d="M 529.351562 288.140625 L 701.851562 288.140625 L 701.851562 460.640625 L 529.351562 460.640625 Z M 529.351562 288.140625 " clip-rule="nonzero"/></clipPath><clipPath id="id5"><path d="M 702.148438 115.339844 L 874.648438 115.339844 L 874.648438 287.839844 L 702.148438 287.839844 Z M 702.148438 115.339844 " clip-rule="nonzero"/></clipPath></defs><g clip-path="url(#id1)"><path fill="#ffffff" d="M 0 0.140625 L 1024.5 0.140625 L 1024.5 583.640625 L 0 583.640625 Z M 0 0.140625 " fill-opacity="1" fill-rule="nonzero"/><path fill="#000000" d="M 0 0.140625 L 1024.5 0.140625 L 1024.5 576.140625 L 0 576.140625 Z M 0 0.140625 " fill-opacity="1" fill-rule="nonzero"/><path fill="#ffffff" d="M 0 0.140625 L 1024.5 0.140625 L 1024.5 576.140625 L 0 576.140625 Z M 0 0.140625 " fill-opacity="1" fill-rule="nonzero"/><path fill="#000000" d="M 0 0.140625 L 1024.5 0.140625 L 1024.5 576.140625 L 0 576.140625 Z M 0 0.140625 " fill-opacity="1" fill-rule="nonzero"/></g><g clip-path="url(#id2)"><path fill="#5e17eb" d="M 529.351562 115.339844 L 701.851562 115.339844 L 701.851562 287.839844 L 529.351562 287.839844 L 529.351562 115.339844 " fill-opacity="1" fill-rule="nonzero"/></g><g clip-path="url(#id3)"><path fill="#5e17eb" d="M 702.148438 288.140625 L 874.648438 288.140625 L 874.648438 460.640625 L 702.148438 460.640625 L 702.148438 288.140625 " fill-opacity="1" fill-rule="nonzero"/></g><g clip-path="url(#id4)"><path fill="#8c52ff" d="M 615.601562 288.140625 C 567.964844 288.140625 529.351562 326.757812 529.351562 374.390625 C 529.351562 422.023438 567.964844 460.640625 615.601562 460.640625 C 663.234375 460.640625 701.851562 422.023438 701.851562 374.390625 C 701.851562 326.757812 663.234375 288.140625 615.601562 288.140625 " fill-opacity="1" fill-rule="nonzero"/></g><g clip-path="url(#id5)"><path fill="#8c52ff" d="M 788.398438 115.339844 C 740.765625 115.339844 702.148438 153.957031 702.148438 201.589844 C 702.148438 249.226562 740.765625 287.839844 788.398438 287.839844 C 836.035156 287.839844 874.648438 249.226562 874.648438 201.589844 C 874.648438 153.957031 836.035156 115.339844 788.398438 115.339844 " fill-opacity="1" fill-rule="nonzero"/></g></svg>