<svg xmlns="http://www.w3.org/2000/svg" xmlns:xlink="http://www.w3.org/1999/xlink" width="1366" zoomAndPan="magnify" viewBox="0 0 1024.5 576" height="768" preserveAspectRatio="xMidYMid meet" version="1.0"><defs><filter x="0%" y="0%" width="100%" height="100%" id="id1"><feColorMatrix values="0 0 0 0 1 0 0 0 0 1 0 0 0 0 1 0 0 0 1 0" color-interpolation-filters="sRGB"/></filter><clipPath id="id2"><path d="M 0 0.140625 L 1024 0.140625 L 1024 575.859375 L 0 575.859375 Z M 0 0.140625 " clip-rule="nonzero"/></clipPath><mask id="id3"><g filter="url(#id1)"><rect x="-102.45" width="1229.4" fill="#000000" y="-57.6" height="691.2" fill-opacity="0.4"/></g></mask><clipPath id="id4"><path d="M 0 508 L 87 508 L 87 575.859375 L 0 575.859375 Z M 0 508 " clip-rule="nonzero"/></clipPath><clipPath id="id5"><path d="M 262 0.140625 L 291 0.140625 L 291 28 L 262 28 Z M 262 0.140625 " clip-rule="nonzero"/></clipPath><clipPath id="id6"><path d="M 734 508 L 821 508 L 821 575.859375 L 734 575.859375 Z M 734 508 " clip-rule="nonzero"/></clipPath><clipPath id="id7"><path d="M 997 0.140625 L 1024 0.140625 L 1024 28 L 997 28 Z M 997 0.140625 " clip-rule="nonzero"/></clipPath><clipPath id="id8"><rect x="0" width="1024" y="0" height="576"/></clipPath></defs><g clip-path="url(#id2)"><path fill="#ffffff" d="M 0 0.140625 L 1024.5 0.140625 L 1024.5 583.640625 L 0 583.640625 Z M 0 0.140625 " fill-opacity="1" fill-rule="nonzero"/><path fill="#5e17eb" d="M 0 0.140625 L 1024.5 0.140625 L 1024.5 576.140625 L 0 576.140625 Z M 0 0.140625 " fill-opacity="1" fill-rule="nonzero"/><path fill="#ffffff" d="M 0 0.140625 L 1024.5 0.140625 L 1024.5 576.140625 L 0 576.140625 Z M 0 0.140625 " fill-opacity="1" fill-rule="nonzero"/><path fill="#5e17eb" d="M 0 0.140625 L 1024.5 0.140625 L 1024.5 576.140625 L 0 576.140625 Z M 0 0.140625 " fill-opacity="1" fill-rule="nonzero"/><g mask="url(#id3)"><g transform="matrix(1, 0, 0, 1, 0, 0.000000000000055289)"><g clip-path="url(#id8)"><path fill="#cb6ce6" d="M 113.480469 64.886719 C 107.347656 33.644531 78.742188 14.519531 47.648438 18.847656 C 16.140625 23.234375 -2.503906 54.929688 1.636719 84.722656 C 2.050781 87.707031 5.511719 88.742188 7.988281 88.332031 C 41.953125 82.636719 75.910156 76.945312 109.875 71.242188 C 116.433594 70.144531 113.640625 60.1875 107.128906 61.277344 C 73.167969 66.980469 39.207031 72.671875 5.246094 78.367188 C 7.359375 79.570312 9.476562 80.773438 11.597656 81.976562 C 8.007812 56.132812 25.238281 33.765625 50.394531 28.816406 C 75.96875 23.792969 98.792969 43.542969 103.519531 67.632812 C 104.804688 74.171875 114.757812 71.394531 113.480469 64.886719 " fill-opacity="1" fill-rule="nonzero"/><path fill="#cb6ce6" d="M 168.777344 386.671875 C 151.960938 379.125 135.140625 371.578125 118.324219 364.035156 C 112.292969 361.347656 107.039062 370.234375 113.109375 372.964844 C 129.929688 380.511719 146.746094 388.035156 163.566406 395.582031 C 169.59375 398.289062 174.855469 389.378906 168.777344 386.671875 " fill-opacity="1" fill-rule="nonzero"/><path fill="#cb6ce6" d="M 161.960938 366.289062 C 145.132812 358.742188 128.3125 351.195312 111.496094 343.648438 C 105.476562 340.941406 100.210938 349.851562 106.28125 352.582031 C 123.101562 360.125 139.921875 367.652344 156.738281 375.199219 C 162.765625 377.90625 168.027344 368.996094 161.960938 366.289062 " fill-opacity="1" fill-rule="nonzero"/><path fill="#cb6ce6" d="M 149.023438 395.148438 C 132.203125 387.621094 115.386719 380.078125 98.566406 372.53125 C 92.535156 369.824219 87.273438 378.734375 93.34375 381.460938 C 110.171875 388.988281 126.992188 396.53125 143.808594 404.078125 C 149.835938 406.785156 155.089844 397.875 149.023438 395.148438 " fill-opacity="1" fill-rule="nonzero"/><g clip-path="url(#id4)"><path fill="#8c52ff" d="M 79.6875 579.242188 C 92.660156 556.726562 86.082031 529.730469 64.621094 515.320312 C 43.066406 500.871094 14.398438 510.007812 0.734375 530.410156 C -0.863281 532.789062 0.316406 536.054688 2.589844 537.460938 C 25.929688 552.015625 49.28125 566.570312 72.617188 581.101562 C 78.292969 584.636719 83.472656 575.6875 77.832031 572.171875 C 54.492188 557.636719 31.144531 543.085938 7.804688 528.550781 C 8.417969 530.90625 9.039062 533.265625 9.660156 535.621094 C 20.933594 518.792969 41.972656 514.183594 59.40625 524.25 C 76.933594 534.359375 80.308594 557.472656 70.761719 574.03125 C 67.429688 579.820312 76.363281 585.007812 79.6875 579.242188 " fill-opacity="1" fill-rule="nonzero"/></g><path fill="#8c52ff" d="M 96.03125 213.59375 C 96.03125 221.183594 89.898438 227.324219 82.328125 227.324219 C 74.757812 227.324219 68.625 221.183594 68.625 213.59375 C 68.625 206.027344 74.757812 199.894531 82.328125 199.894531 C 89.898438 199.894531 96.03125 206.027344 96.03125 213.59375 " fill-opacity="1" fill-rule="nonzero"/><path fill="#ffffff" d="M 232.554688 293.910156 C 239.332031 306.707031 246.089844 319.523438 252.867188 332.300781 C 256.8125 339.765625 260.222656 346.894531 269.3125 348.199219 C 284.476562 350.390625 293.441406 335.050781 287.886719 322.210938 C 282.203125 309.0625 274.269531 296.472656 267.554688 283.820312 C 263.628906 276.359375 260.222656 269.226562 251.128906 267.902344 C 235.964844 265.734375 227 281.050781 232.554688 293.910156 C 235.199219 300.03125 244.085938 294.738281 241.480469 288.699219 C 239.1875 283.429688 242.535156 279.644531 247.390625 278.199219 C 253.734375 276.277344 256.503906 284.960938 258.652344 289.03125 C 265.425781 301.828125 272.203125 314.625 278.960938 327.421875 C 281.6875 332.546875 277.597656 336.558594 273.050781 337.921875 C 266.707031 339.824219 263.941406 331.164062 261.792969 327.089844 C 255.015625 314.292969 248.238281 301.496094 241.480469 288.699219 C 238.363281 282.808594 229.4375 288.019531 232.554688 293.910156 " fill-opacity="1" fill-rule="nonzero"/><g clip-path="url(#id5)"><path fill="#ffffff" d="M 290.054688 14.085938 C 290.054688 21.660156 283.898438 27.796875 276.335938 27.796875 C 268.773438 27.796875 262.636719 21.660156 262.636719 14.085938 C 262.636719 6.519531 268.773438 0.371094 276.335938 0.371094 C 283.898438 0.371094 290.054688 6.519531 290.054688 14.085938 " fill-opacity="1" fill-rule="nonzero"/></g><path fill="#000000" d="M 231.792969 91.777344 C 218.777344 104.84375 205.769531 117.910156 192.757812 130.976562 C 188.054688 135.703125 195.355469 143.007812 200.0625 138.285156 C 213.074219 125.21875 226.089844 112.152344 239.085938 99.09375 C 243.796875 94.363281 236.503906 87.054688 231.792969 91.777344 " fill-opacity="1" fill-rule="nonzero"/><path fill="#000000" d="M 210.324219 90.945312 C 197.308594 104.003906 184.300781 117.070312 171.289062 130.136719 C 166.585938 134.863281 173.886719 142.167969 178.59375 137.445312 C 191.601562 124.378906 204.613281 111.3125 217.617188 98.257812 C 222.328125 93.523438 215.015625 86.214844 210.324219 90.945312 " fill-opacity="1" fill-rule="nonzero"/><path fill="#000000" d="M 232.722656 113.273438 C 219.707031 126.34375 206.710938 139.40625 193.683594 152.472656 C 188.980469 157.195312 196.285156 164.507812 200.988281 159.78125 C 214.003906 146.714844 227.019531 133.652344 240.035156 120.582031 C 244.726562 115.859375 237.433594 108.550781 232.722656 113.273438 " fill-opacity="1" fill-rule="nonzero"/><path fill="#000000" d="M 260.570312 489.953125 C 260.570312 497.519531 254.4375 503.660156 246.875 503.660156 C 239.292969 503.660156 233.175781 497.519531 233.175781 489.953125 C 233.175781 482.367188 239.292969 476.226562 246.875 476.226562 C 254.4375 476.226562 260.570312 482.367188 260.570312 489.953125 " fill-opacity="1" fill-rule="nonzero"/><path fill="#cb6ce6" d="M 441.269531 334.535156 C 454.660156 362.257812 486.949219 374.742188 515.402344 362.8125 C 544.285156 350.742188 556.742188 316.421875 544.902344 288.101562 C 543.519531 284.816406 540.628906 283.53125 537.320312 285.019531 C 505.917969 299.183594 474.535156 313.324219 443.128906 327.464844 C 437.054688 330.191406 442.324219 339.101562 448.335938 336.394531 C 479.742188 322.253906 511.125 308.09375 542.527344 293.953125 C 540.007812 292.917969 537.464844 291.882812 534.945312 290.851562 C 544.738281 314.292969 536.371094 339.785156 513.976562 352.125 C 490.175781 365.273438 461.394531 352.519531 450.195312 329.324219 C 447.304688 323.308594 438.378906 328.558594 441.269531 334.535156 " fill-opacity="1" fill-rule="nonzero"/><path fill="#cb6ce6" d="M 393.070312 212.519531 C 411.355469 210.164062 429.636719 207.808594 447.921875 205.449219 C 454.429688 204.609375 454.515625 194.253906 447.921875 195.113281 C 429.636719 197.46875 411.355469 199.828125 393.070312 202.179688 C 386.5625 203.015625 386.476562 213.367188 393.070312 212.519531 " fill-opacity="1" fill-rule="nonzero"/><path fill="#cb6ce6" d="M 409.535156 226.332031 C 427.820312 223.972656 446.085938 221.617188 464.367188 219.261719 C 470.878906 218.433594 470.960938 208.074219 464.367188 208.921875 C 446.085938 211.28125 427.820312 213.636719 409.535156 215.992188 C 403.027344 216.839844 402.945312 227.179688 409.535156 226.332031 " fill-opacity="1" fill-rule="nonzero"/><path fill="#cb6ce6" d="M 405.484375 194.949219 C 423.769531 192.589844 442.054688 190.234375 460.339844 187.875 C 466.847656 187.046875 466.929688 176.691406 460.339844 177.539062 C 442.054688 179.898438 423.769531 182.253906 405.484375 184.613281 C 398.976562 185.453125 398.894531 195.796875 405.484375 194.949219 " fill-opacity="1" fill-rule="nonzero"/><path fill="#cb6ce6" d="M 847.933594 64.886719 C 841.796875 33.644531 813.183594 14.519531 782.089844 18.847656 C 750.582031 23.234375 731.945312 54.929688 736.078125 84.722656 C 736.492188 87.707031 739.960938 88.742188 742.441406 88.332031 C 776.40625 82.636719 810.351562 76.945312 844.316406 71.242188 C 850.886719 70.144531 848.078125 60.1875 841.570312 61.277344 C 807.605469 66.980469 773.660156 72.671875 739.691406 78.367188 C 741.800781 79.570312 743.929688 80.773438 746.035156 81.976562 C 742.460938 56.132812 759.691406 33.765625 784.835938 28.816406 C 810.414062 23.792969 833.246094 43.542969 837.976562 67.632812 C 839.257812 74.171875 849.195312 71.394531 847.933594 64.886719 " fill-opacity="1" fill-rule="nonzero"/><path fill="#cb6ce6" d="M 903.242188 386.671875 C 886.402344 379.125 869.585938 371.578125 852.769531 364.035156 C 846.757812 361.347656 841.488281 370.234375 847.5625 372.964844 C 864.378906 380.511719 881.199219 388.035156 898.015625 395.582031 C 904.046875 398.289062 909.296875 389.378906 903.242188 386.671875 " fill-opacity="1" fill-rule="nonzero"/><path fill="#cb6ce6" d="M 896.402344 366.289062 L 845.949219 343.648438 C 839.917969 340.941406 834.648438 349.851562 840.742188 352.582031 C 857.542969 360.125 874.378906 367.652344 891.199219 375.199219 C 897.210938 377.90625 902.476562 368.996094 896.402344 366.289062 " fill-opacity="1" fill-rule="nonzero"/><path fill="#cb6ce6" d="M 883.46875 395.148438 C 866.652344 387.621094 849.835938 380.078125 833.015625 372.53125 C 826.984375 369.824219 821.734375 378.734375 827.789062 381.460938 C 844.609375 388.988281 861.445312 396.53125 878.265625 404.078125 C 884.277344 406.785156 889.542969 397.875 883.46875 395.148438 " fill-opacity="1" fill-rule="nonzero"/><g clip-path="url(#id6)"><path fill="#8c52ff" d="M 814.132812 579.242188 C 827.109375 556.726562 820.539062 529.730469 799.070312 515.320312 C 777.5 500.871094 748.84375 510.007812 735.1875 530.410156 C 733.578125 532.789062 734.753906 536.054688 737.027344 537.460938 C 760.375 552.015625 783.71875 566.570312 807.066406 581.101562 C 812.75 584.636719 817.914062 575.6875 812.273438 572.171875 C 788.949219 557.636719 765.601562 543.085938 742.253906 528.550781 L 744.113281 535.621094 C 755.375 518.792969 776.425781 514.183594 793.84375 524.25 C 811.386719 534.359375 814.753906 557.472656 805.207031 574.03125 C 801.882812 579.820312 810.808594 585.007812 814.132812 579.242188 " fill-opacity="1" fill-rule="nonzero"/></g><path fill="#8c52ff" d="M 527.136719 72.527344 C 540.089844 50.019531 533.519531 23.007812 512.054688 8.609375 C 490.503906 -5.84375 461.847656 3.296875 448.191406 23.6875 C 446.578125 26.078125 447.757812 29.339844 450.03125 30.761719 C 473.375 45.296875 496.722656 59.839844 520.070312 74.382812 C 525.730469 77.914062 530.917969 68.972656 525.277344 65.453125 C 501.929688 50.917969 478.582031 36.371094 455.238281 21.828125 C 455.855469 24.1875 456.476562 26.546875 457.097656 28.902344 C 468.378906 12.074219 489.410156 7.476562 506.847656 17.53125 C 524.386719 27.652344 527.753906 50.753906 518.210938 67.308594 C 514.882812 73.09375 523.808594 78.300781 527.136719 72.527344 " fill-opacity="1" fill-rule="nonzero"/><path fill="#8c52ff" d="M 830.476562 213.59375 C 830.476562 221.183594 824.339844 227.324219 816.777344 227.324219 C 809.195312 227.324219 803.078125 221.183594 803.078125 213.59375 C 803.078125 206.027344 809.195312 199.894531 816.777344 199.894531 C 824.339844 199.894531 830.476562 206.027344 830.476562 213.59375 " fill-opacity="1" fill-rule="nonzero"/><path fill="#8c52ff" d="M 384.847656 399.613281 C 384.847656 407.199219 378.710938 413.339844 371.148438 413.339844 C 363.585938 413.339844 357.449219 407.199219 357.449219 399.613281 C 357.449219 392.046875 363.585938 385.90625 371.148438 385.90625 C 378.710938 385.90625 384.847656 392.046875 384.847656 399.613281 " fill-opacity="1" fill-rule="nonzero"/><path fill="#ffffff" d="M 613.621094 109.296875 C 604.222656 120.308594 594.839844 131.324219 585.441406 142.339844 C 580.460938 148.167969 573.664062 154.894531 576.121094 163.433594 C 580.152344 177.492188 596.328125 182.609375 606.886719 172.121094 C 617.050781 162.042969 625.789062 149.960938 635.085938 139.078125 C 640.066406 133.253906 646.863281 126.527344 644.40625 117.984375 C 640.378906 103.933594 624.199219 98.804688 613.621094 109.296875 C 608.890625 113.996094 616.203125 121.300781 620.933594 116.601562 C 625.234375 112.332031 630.335938 113.398438 633.578125 118.28125 C 637.421875 124.03125 628.476562 130.953125 625.210938 134.773438 C 616.679688 144.785156 608.125 154.800781 599.59375 164.8125 C 595.585938 169.503906 589.984375 167.71875 586.949219 163.132812 C 583.105469 157.382812 592.050781 150.464844 595.316406 146.644531 C 603.847656 136.628906 612.382812 126.617188 620.933594 116.601562 C 625.234375 111.5625 617.960938 104.214844 613.621094 109.296875 " fill-opacity="1" fill-rule="nonzero"/><path fill="#ffffff" d="M 632.691406 433.414062 C 632.691406 440.980469 626.554688 447.121094 618.992188 447.121094 C 611.410156 447.121094 605.273438 440.980469 605.273438 433.414062 C 605.273438 425.847656 611.410156 419.707031 618.992188 419.707031 C 626.554688 419.707031 632.691406 425.847656 632.691406 433.414062 " fill-opacity="1" fill-rule="nonzero"/><g clip-path="url(#id7)"><path fill="#ffffff" d="M 1024.5 14.085938 C 1024.5 21.660156 1018.363281 27.796875 1010.78125 27.796875 C 1003.21875 27.796875 997.082031 21.660156 997.082031 14.085938 C 997.082031 6.519531 1003.21875 0.371094 1010.78125 0.371094 C 1018.363281 0.371094 1024.5 6.519531 1024.5 14.085938 " fill-opacity="1" fill-rule="nonzero"/></g><path fill="#ffffff" d="M 967 293.910156 C 973.777344 306.707031 980.554688 319.523438 987.332031 332.300781 C 991.277344 339.765625 994.664062 346.894531 1003.757812 348.199219 C 1018.921875 350.390625 1027.886719 335.050781 1022.332031 322.210938 C 1016.648438 309.0625 1008.714844 296.472656 1002 283.820312 C 998.074219 276.359375 994.664062 269.226562 985.574219 267.902344 C 970.410156 265.734375 961.445312 281.050781 967 293.910156 C 969.644531 300.03125 978.53125 294.738281 975.925781 288.699219 C 973.632812 283.429688 976.980469 279.644531 981.835938 278.199219 C 988.199219 276.277344 990.945312 284.960938 993.097656 289.03125 L 1013.425781 327.421875 C 1016.132812 332.546875 1012.042969 336.558594 1007.496094 337.921875 C 1001.152344 339.824219 998.386719 331.164062 996.234375 327.089844 C 989.460938 314.292969 982.703125 301.496094 975.925781 288.699219 C 972.808594 282.808594 963.882812 288.019531 967 293.910156 " fill-opacity="1" fill-rule="nonzero"/><path fill="#000000" d="M 514.71875 544.800781 C 507.15625 527.992188 499.574219 511.183594 492.011719 494.359375 C 489.285156 488.28125 480.382812 493.550781 483.085938 499.566406 C 490.667969 516.394531 498.230469 533.203125 505.792969 550.03125 C 508.542969 556.085938 517.425781 550.835938 514.71875 544.800781 " fill-opacity="1" fill-rule="nonzero"/><path fill="#000000" d="M 523.148438 525.035156 C 515.585938 508.207031 508.023438 491.402344 500.441406 474.574219 C 497.714844 468.515625 488.808594 473.765625 491.515625 479.804688 C 499.097656 496.609375 506.660156 513.4375 514.222656 530.246094 C 516.949219 536.324219 525.855469 531.050781 523.148438 525.035156 " fill-opacity="1" fill-rule="nonzero"/><path fill="#000000" d="M 494.304688 538.019531 C 486.746094 521.210938 479.183594 504.382812 471.621094 487.578125 C 468.871094 481.5 459.988281 486.769531 462.695312 492.785156 C 470.257812 509.59375 477.820312 526.421875 485.402344 543.25 C 488.128906 549.308594 497.035156 544.054688 494.304688 538.019531 " fill-opacity="1" fill-rule="nonzero"/><path fill="#000000" d="M 384.847656 80.882812 C 384.847656 88.449219 378.710938 94.597656 371.148438 94.597656 C 363.585938 94.597656 357.449219 88.449219 357.449219 80.882812 C 357.449219 73.308594 363.585938 67.171875 371.148438 67.171875 C 378.710938 67.171875 384.847656 73.308594 384.847656 80.882812 " fill-opacity="1" fill-rule="nonzero"/><path fill="#000000" d="M 680.769531 277.0625 C 680.769531 284.628906 674.632812 290.769531 667.050781 290.769531 C 659.488281 290.769531 653.351562 284.628906 653.351562 277.0625 C 653.351562 269.476562 659.488281 263.335938 667.050781 263.335938 C 674.632812 263.335938 680.769531 269.476562 680.769531 277.0625 " fill-opacity="1" fill-rule="nonzero"/><path fill="#000000" d="M 966.238281 91.777344 C 953.222656 104.84375 940.203125 117.910156 927.207031 130.976562 C 922.5 135.703125 929.8125 143.007812 934.503906 138.285156 C 947.519531 125.21875 960.535156 112.152344 973.53125 99.09375 C 978.242188 94.363281 970.949219 87.054688 966.238281 91.777344 " fill-opacity="1" fill-rule="nonzero"/><path fill="#000000" d="M 944.769531 90.945312 C 931.753906 104.003906 918.738281 117.070312 905.742188 130.136719 C 901.03125 134.863281 908.324219 142.167969 913.035156 137.445312 C 926.050781 124.378906 939.066406 111.3125 952.0625 98.257812 C 956.773438 93.523438 949.480469 86.214844 944.769531 90.945312 " fill-opacity="1" fill-rule="nonzero"/><path fill="#000000" d="M 967.167969 113.273438 C 954.152344 126.34375 941.15625 139.40625 928.136719 152.472656 C 923.429688 157.195312 930.722656 164.507812 935.453125 159.78125 C 948.449219 146.714844 961.464844 133.652344 974.480469 120.582031 C 979.191406 115.859375 971.878906 108.550781 967.167969 113.273438 " fill-opacity="1" fill-rule="nonzero"/><path fill="#000000" d="M 995.015625 489.953125 C 995.015625 497.519531 988.882812 503.660156 981.320312 503.660156 C 973.738281 503.660156 967.621094 497.519531 967.621094 489.953125 C 967.621094 482.367188 973.738281 476.226562 981.320312 476.226562 C 988.882812 476.226562 995.015625 482.367188 995.015625 489.953125 " fill-opacity="1" fill-rule="nonzero"/></g></g></g></g></svg>