<svg xmlns="http://www.w3.org/2000/svg" xmlns:xlink="http://www.w3.org/1999/xlink" width="1366" zoomAndPan="magnify" viewBox="0 0 1024.5 576" height="768" preserveAspectRatio="xMidYMid meet" version="1.0"><defs><clipPath id="id1"><path d="M 0 0.140625 L 1024 0.140625 L 1024 575.859375 L 0 575.859375 Z M 0 0.140625 " clip-rule="nonzero"/></clipPath><clipPath id="id2"><path d="M 277.648438 288.140625 L 450.148438 288.140625 L 450.148438 460.640625 L 277.648438 460.640625 Z M 277.648438 288.140625 " clip-rule="nonzero"/></clipPath><clipPath id="id3"><path d="M 104.851562 115.339844 L 277.351562 115.339844 L 277.351562 287.839844 L 104.851562 287.839844 Z M 104.851562 115.339844 " clip-rule="nonzero"/></clipPath><clipPath id="id4"><path d="M 277.648438 109.582031 L 456.875 109.582031 L 456.875 288.804688 L 277.648438 288.804688 Z M 277.648438 109.582031 " clip-rule="nonzero"/></clipPath><clipPath id="id5"><path d="M 99.089844 288.140625 L 278.3125 288.140625 L 278.3125 467.363281 L 99.089844 467.363281 Z M 99.089844 288.140625 " clip-rule="nonzero"/></clipPath></defs><g clip-path="url(#id1)"><path fill="#ffffff" d="M 0 0.140625 L 1024.5 0.140625 L 1024.5 583.640625 L 0 583.640625 Z M 0 0.140625 " fill-opacity="1" fill-rule="nonzero"/><path fill="#000000" d="M 0 0.140625 L 1024.5 0.140625 L 1024.5 576.140625 L 0 576.140625 Z M 0 0.140625 " fill-opacity="1" fill-rule="nonzero"/><path fill="#ffffff" d="M 0 0.140625 L 1024.5 0.140625 L 1024.5 576.140625 L 0 576.140625 Z M 0 0.140625 " fill-opacity="1" fill-rule="nonzero"/><path fill="#000000" d="M 0 0.140625 L 1024.5 0.140625 L 1024.5 576.140625 L 0 576.140625 Z M 0 0.140625 " fill-opacity="1" fill-rule="nonzero"/></g><g clip-path="url(#id2)"><path fill="#5e17eb" d="M 277.648438 288.140625 L 450.148438 288.140625 L 450.148438 460.640625 L 277.648438 460.640625 L 277.648438 288.140625 " fill-opacity="1" fill-rule="nonzero"/></g><g clip-path="url(#id3)"><path fill="#5e17eb" d="M 104.851562 115.339844 L 277.351562 115.339844 L 277.351562 287.839844 L 104.851562 287.839844 L 104.851562 115.339844 " fill-opacity="1" fill-rule="nonzero"/></g><g clip-path="url(#id4)"><path fill="#8c52ff" d="M 367.195312 288.804688 C 317.890625 288.804688 277.648438 248.5625 277.648438 199.125 C 277.648438 149.824219 317.890625 109.582031 367.195312 109.582031 C 416.632812 109.582031 456.742188 149.824219 456.742188 199.125 C 456.875 248.5625 416.632812 288.804688 367.195312 288.804688 Z M 367.195312 158.882812 C 345.074219 158.882812 326.953125 177.007812 326.953125 199.125 C 326.953125 221.246094 345.074219 239.367188 367.195312 239.367188 C 389.316406 239.367188 407.4375 221.246094 407.4375 199.125 C 407.4375 177.007812 389.449219 158.882812 367.195312 158.882812 Z M 367.195312 158.882812 " fill-opacity="1" fill-rule="nonzero"/></g><g clip-path="url(#id5)"><path fill="#8c52ff" d="M 188.636719 467.363281 C 139.332031 467.363281 99.089844 427.121094 99.089844 377.6875 C 99.089844 328.382812 139.332031 288.140625 188.636719 288.140625 C 238.070312 288.140625 278.179688 328.382812 278.179688 377.6875 C 278.3125 427.121094 238.070312 467.363281 188.636719 467.363281 Z M 188.636719 337.445312 C 166.515625 337.445312 148.394531 355.566406 148.394531 377.6875 C 148.394531 399.804688 166.515625 417.929688 188.636719 417.929688 C 210.753906 417.929688 228.878906 399.804688 228.878906 377.6875 C 228.878906 355.566406 210.886719 337.445312 188.636719 337.445312 Z M 188.636719 337.445312 " fill-opacity="1" fill-rule="nonzero"/></g></svg>